# xmcd CD database file
#
# Track frame offsets:
#	150
#	26200
#	47762
#	81640
#	105442
#	135872
#	157850
#	181382
#	212010
#	238072
#	262100
#
# Disc length: 3716 seconds
#
# Revision: 1
# Processed by: cddbd v1.5.2PL0 Copyright (c) Steve Scherf et al.
# Submitted via: CDex 1.70beta2
#
DISCID=920e820b
DTITLE=Jan Lundgren - A Touch of You
DYEAR=1998
DGENRE=Jazz
TTITLE0=Blues for Raz
TTITLE1=Love You Madly
TTITLE2=Willow Weep for Me
TTITLE3=Cleopatora's Dream
TTITLE4=A Touch of You
TTITLE5=Midnight Waltz
TTITLE6=The Time is Now
TTITLE7=While My Lady Sleeps
TTITLE8=Tranquille
TTITLE9=Fingers
TTITLE10=Lotus Blossom
EXTD=YEAR: 1998
EXTT0=
EXTT1=
EXTT2=
EXTT3=
EXTT4=
EXTT5=
EXTT6=
EXTT7=
EXTT8=
EXTT9=
EXTT10=
PLAYORDER=
